# xmcd
#
# Track frame offsets:
#	150
#	12623
#	31459
#	41710
#	57114
#	102896
#	118968
#	174236
#	207930
#	222970
#
# Disc length: 3394 seconds
#
# Revision: 0
# Processed by: cddbd v1.4PL0 Copyright (c) Steve Scherf et al.
# Submitted via: dBpowerAMP V4.0
#
DISCID=8d0d400a
DTITLE=Little Jimmy And The Blackbirds - Even Angels Got To Cry
DYEAR=2000
DGENRE=Blues
TTITLE0=Screamin' And Cryin'
TTITLE1=She Upsets Me (In Every Way)
TTITLE2=The Jimmy Joyce Shuffle
TTITLE3=The Night I Was Born
TTITLE4=I Got A Mind To Leave You (Live)
TTITLE5=Lover Child
TTITLE6=I'll Be Free
TTITLE7=Honey Bee (Live)
TTITLE8=Tryin' To Find My Baby
TTITLE9=Hey Joe
EXTD=
EXTT0=
EXTT1=
EXTT2=
EXTT3=
EXTT4=
EXTT5=
EXTT6=
EXTT7=
EXTT8=
EXTT9=
PLAYORDER=
